{
  "accessors": [
    {
      "bufferView": 2,
      "componentType": 5126,
      "count": 819,
      "max": [
        281.0395202636719,
        614.6651611328125,
        384.45220947265625
      ],
      "min": [
        -281.0395202636719,
        0.11882197856903076,
        -383.941162109375
      ],
      "type": "VEC3"
    },
    {
      "bufferView": 2,
      "byteOffset": 9828,
      "componentType": 5126,
      "count": 819,
      "max": [
        0.9956653118133545,
        0.9991443753242493,
        0.9991650581359863
      ],
      "min": [
        -0.9988890886306763,
        -0.999955415725708,
        -0.9943339228630066
      ],
      "type": "VEC3"
    },
    {
      "bufferView": 3,
      "componentType": 5126,
      "count": 819,
      "max": [
        0.9932960867881775,
        0.9861043691635132,
        0.9998801946640015,
        1.0
      ],
      "min": [
        -0.9340834021568298,
        -0.8912166357040405,
        -0.9994474649429321,
        1.0
      ],
      "type": "VEC4"
    },
    {
      "bufferView": 1,
      "componentType": 5126,
      "count": 819,
      "max": [
        0.9900000095367432,
        0.9894661903381348
      ],
      "min": [
        0.009999999776482582,
        0.009999999776482582
      ],
      "type": "VEC2"
    },
    {
      "bufferView": 0,
      "componentType": 5125,
      "count": 4500,
      "type": "SCALAR"
    }
  ],
  "asset": {
    "extras": {
      "author": "dianmozokov (https://sketchfab.com/dianmozokov)",
      "license": "CC-BY-4.0 (http://creativecommons.org/licenses/by/4.0/)",
      "source": "https://sketchfab.com/3d-models/game-environment-prop-rock-458bc46ae1bd41f984f3c5f2edd5f77a",
      "title": "Game Environment Prop: Rock"
    },
    "generator": "Sketchfab-12.65.0",
    "version": "2.0"
  },
  "bufferViews": [
    {
      "buffer": 0,
      "byteLength": 18000,
      "name": "floatBufferViews",
      "target": 34963
    },
    {
      "buffer": 0,
      "byteLength": 6552,
      "byteOffset": 18000,
      "byteStride": 8,
      "name": "floatBufferViews",
      "target": 34962
    },
    {
      "buffer": 0,
      "byteLength": 19656,
      "byteOffset": 24552,
      "byteStride": 12,
      "name": "floatBufferViews",
      "target": 34962
    },
    {
      "buffer": 0,
      "byteLength": 13104,
      "byteOffset": 44208,
      "byteStride": 16,
      "name": "floatBufferViews",
      "target": 34962
    }
  ],
  "buffers": [
    {
      "byteLength": 57312,
      "uri": "scene.bin"
    }
  ],
  "images": [
    {
      "uri": "textures/Rock_LowPoly_baseColor.jpeg"
    },
    {
      "uri": "textures/Rock_LowPoly_metallicRoughness.png"
    },
    {
      "uri": "textures/Rock_LowPoly_normal.jpeg"
    }
  ],
  "materials": [
    {
      "doubleSided": true,
      "name": "Rock_LowPoly",
      "normalTexture": {
        "index": 2
      },
      "occlusionTexture": {
        "index": 1
      },
      "pbrMetallicRoughness": {
        "baseColorTexture": {
          "index": 0
        },
        "metallicFactor": 0.0,
        "metallicRoughnessTexture": {
          "index": 1
        }
      }
    }
  ],
  "meshes": [
    {
      "name": "Rock_LowPoly_Rock_LowPoly_0",
      "primitives": [
        {
          "attributes": {
            "NORMAL": 1,
            "POSITION": 0,
            "TANGENT": 2,
            "TEXCOORD_0": 3
          },
          "indices": 4,
          "material": 0,
          "mode": 4
        }
      ]
    }
  ],
  "nodes": [
    {
      "children": [
        1
      ],
      "matrix": [
        1.0,
        0.0,
        0.0,
        0.0,
        0.0,
        2.220446049250313e-16,
        -1.0,
        0.0,
        0.0,
        1.0,
        2.220446049250313e-16,
        0.0,
        0.0,
        0.0,
        0.0,
        1.0
      ],
      "name": "Sketchfab_model"
    },
    {
      "children": [
        2
      ],
      "matrix": [
        1.0,
        0.0,
        0.0,
        0.0,
        0.0,
        0.0,
        1.0,
        0.0,
        0.0,
        -1.0,
        0.0,
        0.0,
        0.0,
        0.0,
        0.0,
        1.0
      ],
      "name": "model.fbx"
    },
    {
      "children": [
        3
      ],
      "name": "RootNode"
    },
    {
      "children": [
        4
      ],
      "name": "Rock_LowPoly"
    },
    {
      "mesh": 0,
      "name": "Rock_LowPoly_Rock_LowPoly_0"
    }
  ],
  "samplers": [
    {
      "magFilter": 9729,
      "minFilter": 9987,
      "wrapS": 10497,
      "wrapT": 10497
    }
  ],
  "scene": 0,
  "scenes": [
    {
      "name": "Sketchfab_Scene",
      "nodes": [
        0
      ]
    }
  ],
  "textures": [
    {
      "sampler": 0,
      "source": 0
    },
    {
      "sampler": 0,
      "source": 1
    },
    {
      "sampler": 0,
      "source": 2
    }
  ]
}
